<svg width="79" height="16" viewBox="0 0 79 16" fill="none" xmlns="http://www.w3.org/2000/svg">
<g opacity="0.5">
<rect x="-0.000579834" width="16" height="16" rx="1.77778" fill="#7A8DA5"/>
<path d="M11.8484 5.77786L7.99943 8.00008M7.99942 12.4445L7.99943 8.00008M4.15042 5.77786L7.99943 8.00008" stroke="white" stroke-width="1.77778" stroke-linecap="square"/>
<path d="M7.99942 3.55556L7.99943 8M11.8484 10.2222L7.99943 8M4.15042 10.2222L7.99943 8" stroke="white" stroke-opacity="0.5" stroke-width="1.77778" stroke-linecap="square"/>
<path d="M7.11084 6.46017L7.11084 7.48658L6.22195 7.99978L7.99973 7.99978L7.11084 6.46017Z" fill="white"/>
<path d="M8.88917 6.4601L8.00028 6.9733L7.11139 6.4601L8.00028 7.9997L8.88917 6.4601Z" fill="white" fill-opacity="0.5"/>
<path d="M9.77738 7.9997L8.88849 7.4865L8.88849 6.4601L7.9996 7.9997H9.77738Z" fill="white"/>
<path d="M8.88702 9.54083L8.88702 8.51443L9.77591 8.00123L7.99813 8.00123L8.88702 9.54083Z" fill="white" fill-opacity="0.5"/>
<path d="M7.1087 9.54094L7.99758 9.02774L8.88647 9.54094L7.99758 8.00134L7.1087 9.54094Z" fill="white"/>
<path d="M6.22049 8.00134L7.10937 8.51454L7.10937 9.54094L7.99826 8.00134H6.22049Z" fill="white" fill-opacity="0.5"/>
<path d="M21.7065 12.5V4.436H26.9145V5.7016H23.0561V7.6896H26.2425V8.9552H23.0561V11.2344H26.9145V12.5H21.7065ZM29.9492 12.668C29.5124 12.668 29.1428 12.5859 28.8404 12.4216C28.538 12.2536 28.3084 12.0315 28.1516 11.7552C27.9985 11.4789 27.922 11.1747 27.922 10.8424C27.922 10.5512 27.9705 10.2899 28.0676 10.0584C28.1647 9.8232 28.314 9.6216 28.5156 9.4536C28.7172 9.28187 28.9785 9.14187 29.2996 9.0336C29.5423 8.9552 29.826 8.88427 30.1508 8.8208C30.4793 8.75733 30.834 8.69947 31.2148 8.6472C31.5993 8.5912 32.0007 8.53147 32.4188 8.468L31.9372 8.7424C31.9409 8.32427 31.8476 8.01627 31.6572 7.8184C31.4668 7.62053 31.1457 7.5216 30.694 7.5216C30.4215 7.5216 30.1583 7.58507 29.9044 7.712C29.6505 7.83893 29.4732 8.05733 29.3724 8.3672L28.1404 7.9808C28.2897 7.46933 28.5735 7.05867 28.9916 6.7488C29.4135 6.43893 29.9809 6.284 30.694 6.284C31.2316 6.284 31.7039 6.37173 32.1108 6.5472C32.5215 6.72267 32.8257 7.01013 33.0236 7.4096C33.1319 7.6224 33.1972 7.8408 33.2196 8.0648C33.242 8.28507 33.2532 8.52587 33.2532 8.7872V12.5H32.0716V11.1896L32.2676 11.4024C31.9951 11.8392 31.6759 12.1603 31.31 12.3656C30.9479 12.5672 30.4943 12.668 29.9492 12.668ZM30.218 11.5928C30.5241 11.5928 30.7855 11.5387 31.002 11.4304C31.2185 11.3221 31.3903 11.1896 31.5172 11.0328C31.6479 10.876 31.7356 10.7285 31.7804 10.5904C31.8513 10.4187 31.8905 10.2227 31.898 10.0024C31.9092 9.7784 31.9148 9.59733 31.9148 9.4592L32.3292 9.5824C31.9223 9.64587 31.5732 9.70187 31.282 9.7504C30.9908 9.79893 30.7407 9.8456 30.5316 9.8904C30.3225 9.93147 30.1377 9.97813 29.9772 10.0304C29.8204 10.0864 29.6879 10.1517 29.5796 10.2264C29.4713 10.3011 29.3873 10.3869 29.3276 10.484C29.2716 10.5811 29.2436 10.6949 29.2436 10.8256C29.2436 10.9749 29.2809 11.1075 29.3556 11.2232C29.4303 11.3352 29.5385 11.4248 29.6804 11.492C29.826 11.5592 30.0052 11.5928 30.218 11.5928ZM37.0463 12.668C36.2997 12.668 35.693 12.5 35.2263 12.164C34.7597 11.828 34.4759 11.3557 34.3751 10.7472L35.7527 10.5344C35.8237 10.8331 35.9805 11.0683 36.2231 11.24C36.4658 11.4117 36.7719 11.4976 37.1415 11.4976C37.4663 11.4976 37.7165 11.4341 37.8919 11.3072C38.0711 11.1765 38.1607 10.9992 38.1607 10.7752C38.1607 10.6371 38.1271 10.5269 38.0599 10.4448C37.9965 10.3589 37.8546 10.2768 37.6343 10.1984C37.4141 10.12 37.0762 10.0211 36.6207 9.9016C36.113 9.7672 35.7098 9.62347 35.4111 9.4704C35.1125 9.3136 34.8978 9.1288 34.7671 8.916C34.6365 8.7032 34.5711 8.4456 34.5711 8.1432C34.5711 7.76613 34.6701 7.4376 34.8679 7.1576C35.0658 6.8776 35.3421 6.66293 35.6967 6.5136C36.0514 6.36053 36.4695 6.284 36.9511 6.284C37.4215 6.284 37.8378 6.3568 38.1999 6.5024C38.5658 6.648 38.8607 6.8552 39.0847 7.124C39.3087 7.3928 39.4469 7.70827 39.4991 8.0704L38.1215 8.3168C38.0879 8.0592 37.9703 7.85573 37.7687 7.7064C37.5709 7.55707 37.3058 7.47307 36.9735 7.4544C36.6562 7.43573 36.4005 7.48427 36.2063 7.6C36.0122 7.712 35.9151 7.87067 35.9151 8.076C35.9151 8.19173 35.9543 8.29067 36.0327 8.3728C36.1111 8.45493 36.2679 8.53707 36.5031 8.6192C36.7421 8.70133 37.0967 8.80213 37.5671 8.9216C38.0487 9.0448 38.4333 9.18667 38.7207 9.3472C39.0119 9.504 39.221 9.69253 39.3479 9.9128C39.4786 10.1331 39.5439 10.4 39.5439 10.7136C39.5439 11.3221 39.3218 11.8 38.8775 12.1472C38.437 12.4944 37.8266 12.668 37.0463 12.668ZM41.347 15.188L42.5118 11.9904L42.5342 12.9312L39.8966 6.452H41.3022L43.1726 11.2456H42.8142L44.6342 6.452H45.9838L42.6126 15.188H41.347ZM52.0459 12.668C51.4561 12.668 50.9241 12.5653 50.4499 12.36C49.9795 12.1547 49.5913 11.8616 49.2851 11.4808C48.9827 11.0963 48.7905 10.6408 48.7083 10.1144L50.1083 9.9016C50.2278 10.3795 50.4723 10.7491 50.8419 11.0104C51.2153 11.2717 51.6446 11.4024 52.1299 11.4024C52.4174 11.4024 52.6881 11.3576 52.9419 11.268C53.1958 11.1784 53.4011 11.0477 53.5579 10.876C53.7185 10.7043 53.7987 10.4933 53.7987 10.2432C53.7987 10.1312 53.7801 10.0285 53.7427 9.9352C53.7054 9.83813 53.6494 9.75227 53.5747 9.6776C53.5038 9.60293 53.4105 9.53573 53.2947 9.476C53.1827 9.41253 53.0521 9.3584 52.9027 9.3136L50.8195 8.6976C50.6403 8.64533 50.4462 8.57627 50.2371 8.4904C50.0318 8.4008 49.8358 8.27947 49.6491 8.1264C49.4662 7.9696 49.315 7.77173 49.1955 7.5328C49.0798 7.29013 49.0219 6.99147 49.0219 6.6368C49.0219 6.11787 49.1526 5.68293 49.4139 5.332C49.679 4.97733 50.0337 4.71227 50.4779 4.5368C50.9259 4.36134 51.4225 4.27547 51.9675 4.2792C52.5201 4.28293 53.0129 4.37813 53.4459 4.5648C53.879 4.74774 54.2411 5.01467 54.5323 5.3656C54.8235 5.71653 55.0289 6.14027 55.1483 6.6368L53.6979 6.8888C53.6382 6.60507 53.5225 6.36427 53.3507 6.1664C53.1827 5.9648 52.9755 5.81173 52.7291 5.7072C52.4865 5.60267 52.227 5.54667 51.9507 5.5392C51.6819 5.53547 51.4318 5.57653 51.2003 5.6624C50.9726 5.74454 50.7878 5.864 50.6459 6.0208C50.5078 6.1776 50.4387 6.36053 50.4387 6.5696C50.4387 6.76747 50.4985 6.92987 50.6179 7.0568C50.7374 7.18 50.8849 7.27893 51.0603 7.3536C51.2395 7.42453 51.4206 7.48427 51.6035 7.5328L53.0483 7.936C53.2462 7.98827 53.4683 8.0592 53.7147 8.1488C53.9611 8.2384 54.1982 8.36347 54.4259 8.524C54.6537 8.68453 54.8403 8.89547 54.9859 9.1568C55.1353 9.41813 55.2099 9.7504 55.2099 10.1536C55.2099 10.5717 55.1222 10.9395 54.9467 11.2568C54.775 11.5704 54.5417 11.8317 54.2467 12.0408C53.9518 12.2499 53.6139 12.4067 53.2331 12.5112C52.8561 12.6157 52.4603 12.668 52.0459 12.668ZM58.1133 12.668C57.6765 12.668 57.3069 12.5859 57.0045 12.4216C56.7021 12.2536 56.4725 12.0315 56.3157 11.7552C56.1626 11.4789 56.0861 11.1747 56.0861 10.8424C56.0861 10.5512 56.1346 10.2899 56.2317 10.0584C56.3287 9.8232 56.4781 9.6216 56.6797 9.4536C56.8813 9.28187 57.1426 9.14187 57.4637 9.0336C57.7063 8.9552 57.9901 8.88427 58.3149 8.8208C58.6434 8.75733 58.9981 8.69947 59.3789 8.6472C59.7634 8.5912 60.1647 8.53147 60.5829 8.468L60.1013 8.7424C60.105 8.32427 60.0117 8.01627 59.8213 7.8184C59.6309 7.62053 59.3098 7.5216 58.8581 7.5216C58.5855 7.5216 58.3223 7.58507 58.0685 7.712C57.8146 7.83893 57.6373 8.05733 57.5365 8.3672L56.3045 7.9808C56.4538 7.46933 56.7375 7.05867 57.1557 6.7488C57.5775 6.43893 58.145 6.284 58.8581 6.284C59.3957 6.284 59.8679 6.37173 60.2749 6.5472C60.6855 6.72267 60.9898 7.01013 61.1877 7.4096C61.2959 7.6224 61.3613 7.8408 61.3837 8.0648C61.4061 8.28507 61.4173 8.52587 61.4173 8.7872V12.5H60.2357V11.1896L60.4317 11.4024C60.1591 11.8392 59.8399 12.1603 59.4741 12.3656C59.1119 12.5672 58.6583 12.668 58.1133 12.668ZM58.3821 11.5928C58.6882 11.5928 58.9495 11.5387 59.1661 11.4304C59.3826 11.3221 59.5543 11.1896 59.6813 11.0328C59.8119 10.876 59.8997 10.7285 59.9445 10.5904C60.0154 10.4187 60.0546 10.2227 60.0621 10.0024C60.0733 9.7784 60.0789 9.59733 60.0789 9.4592L60.4933 9.5824C60.0863 9.64587 59.7373 9.70187 59.4461 9.7504C59.1549 9.79893 58.9047 9.8456 58.6957 9.8904C58.4866 9.93147 58.3018 9.97813 58.1413 10.0304C57.9845 10.0864 57.8519 10.1517 57.7437 10.2264C57.6354 10.3011 57.5514 10.3869 57.4917 10.484C57.4357 10.5811 57.4077 10.6949 57.4077 10.8256C57.4077 10.9749 57.445 11.1075 57.5197 11.2232C57.5943 11.3352 57.7026 11.4248 57.8445 11.492C57.9901 11.5592 58.1693 11.5928 58.3821 11.5928ZM62.9872 12.5V4.268H64.3368V12.5H62.9872ZM68.7639 12.668C68.1516 12.668 67.614 12.5355 67.1511 12.2704C66.6881 12.0053 66.326 11.6376 66.0647 11.1672C65.8071 10.6968 65.6783 10.1555 65.6783 9.5432C65.6783 8.8824 65.8052 8.30933 66.0591 7.824C66.3129 7.33493 66.6657 6.956 67.1175 6.6872C67.5692 6.4184 68.0919 6.284 68.6855 6.284C69.3127 6.284 69.8447 6.43147 70.2815 6.7264C70.722 7.0176 71.0487 7.43013 71.2615 7.964C71.4743 8.49787 71.5545 9.12693 71.5023 9.8512H70.1639V9.3584C70.1601 8.70133 70.0444 8.2216 69.8167 7.9192C69.5889 7.6168 69.2305 7.4656 68.7415 7.4656C68.1889 7.4656 67.7783 7.63733 67.5095 7.9808C67.2407 8.32053 67.1063 8.81893 67.1063 9.476C67.1063 10.0883 67.2407 10.5624 67.5095 10.8984C67.7783 11.2344 68.1703 11.4024 68.6855 11.4024C69.0177 11.4024 69.3033 11.3296 69.5423 11.184C69.7849 11.0347 69.9716 10.82 70.1023 10.54L71.4351 10.9432C71.2036 11.4883 70.8452 11.912 70.3599 12.2144C69.8783 12.5168 69.3463 12.668 68.7639 12.668ZM66.6807 9.8512V8.832H70.8415V9.8512H66.6807ZM75.087 12.668C74.3403 12.668 73.7336 12.5 73.267 12.164C72.8003 11.828 72.5166 11.3557 72.4158 10.7472L73.7934 10.5344C73.8643 10.8331 74.0211 11.0683 74.2638 11.24C74.5064 11.4117 74.8126 11.4976 75.1822 11.4976C75.507 11.4976 75.7571 11.4341 75.9326 11.3072C76.1118 11.1765 76.2014 10.9992 76.2014 10.7752C76.2014 10.6371 76.1678 10.5269 76.1006 10.4448C76.0371 10.3589 75.8952 10.2768 75.675 10.1984C75.4547 10.12 75.1168 10.0211 74.6614 9.9016C74.1536 9.7672 73.7504 9.62347 73.4518 9.4704C73.1531 9.3136 72.9384 9.1288 72.8078 8.916C72.6771 8.7032 72.6118 8.4456 72.6118 8.1432C72.6118 7.76613 72.7107 7.4376 72.9086 7.1576C73.1064 6.8776 73.3827 6.66293 73.7374 6.5136C74.092 6.36053 74.5102 6.284 74.9918 6.284C75.4622 6.284 75.8784 6.3568 76.2406 6.5024C76.6064 6.648 76.9014 6.8552 77.1254 7.124C77.3494 7.3928 77.4875 7.70827 77.5398 8.0704L76.1622 8.3168C76.1286 8.0592 76.011 7.85573 75.8094 7.7064C75.6115 7.55707 75.3464 7.47307 75.0142 7.4544C74.6968 7.43573 74.4411 7.48427 74.247 7.6C74.0528 7.712 73.9558 7.87067 73.9558 8.076C73.9558 8.19173 73.995 8.29067 74.0734 8.3728C74.1518 8.45493 74.3086 8.53707 74.5438 8.6192C74.7827 8.70133 75.1374 8.80213 75.6078 8.9216C76.0894 9.0448 76.4739 9.18667 76.7614 9.3472C77.0526 9.504 77.2616 9.69253 77.3886 9.9128C77.5192 10.1331 77.5846 10.4 77.5846 10.7136C77.5846 11.3221 77.3624 11.8 76.9182 12.1472C76.4776 12.4944 75.8672 12.668 75.087 12.668Z" fill="#7A8DA5"/>
</g>
</svg>
